<?xml version="1.0" encoding="UTF-8"?>
<svg xmlns="http://www.w3.org/2000/svg" xmlns:xlink="http://www.w3.org/1999/xlink" width="16px" height="16px" viewBox="0 0 16 16" version="1.1">
<g id="surface1">
<path style=" stroke:none;fill-rule:nonzero;fill:rgb(0%,0%,0%);fill-opacity:1;" d="M 14.855469 1 L 1.140625 1 C 0.511719 1 0 1.453125 0 2.007812 L 0 13.992188 C 0 14.546875 0.511719 15 1.140625 15 L 14.855469 15 C 15.484375 15 16 14.546875 16 13.992188 L 16 2.007812 C 16 1.453125 15.484375 1 14.855469 1 Z M 4.835938 13 L 2.464844 13 L 2.464844 6.320312 L 4.839844 6.320312 L 4.839844 13 Z M 3.648438 5.40625 C 2.890625 5.40625 2.273438 4.867188 2.273438 4.203125 C 2.273438 3.539062 2.890625 3 3.648438 3 C 4.40625 3 5.023438 3.539062 5.023438 4.203125 C 5.023438 4.867188 4.410156 5.40625 3.648438 5.40625 Z M 13.726562 13 L 11.355469 13 L 11.355469 9.75 C 11.355469 8.976562 11.335938 7.976562 10.121094 7.976562 C 8.886719 7.976562 8.695312 8.820312 8.695312 9.695312 L 8.695312 13 L 6.324219 13 L 6.324219 6.320312 L 8.601562 6.320312 L 8.601562 7.230469 L 8.632812 7.230469 C 8.949219 6.707031 9.726562 6.152344 10.878906 6.152344 C 13.277344 6.152344 13.726562 7.539062 13.726562 9.335938 Z M 13.726562 13 "/>
</g>
</svg>
